# xmcd
#
# Track frame offsets: 
#        150
#        12869
#        30306
#        48382
#        67392
#        91296
#        108243
#        123570
#        142839
#        156627
#        168319
#        187668
#
# Disc length: 2836 seconds
#
# Revision: 0
# Processed by: cddbd v1.5.2PL0 Copyright (c) Steve Scherf et al.
# Submitted via: ExactAudioCopy v0.99pb4
#
DISCID=990b120c
DTITLE=Kate Campbell - Save the Day
DYEAR=2008
DGENRE=Country
TTITLE0=Save the Day
TTITLE1=Welcome to Ray
TTITLE2=Fordlandia
TTITLE3=Dark Night of the Soul
TTITLE4=Color of Love
TTITLE5=More Than One More Day
TTITLE6=Looking for Jesus
TTITLE7=Back to the Moon
TTITLE8=Falling Out of Heaven
TTITLE9=Everybody Knows Elvis
TTITLE10=Shining Like the Sun
TTITLE11=Sorrowfree
EXTD=
EXTT0=
EXTT1=
EXTT2=
EXTT3=
EXTT4=
EXTT5=
EXTT6=
EXTT7=
EXTT8=
EXTT9=
EXTT10=
EXTT11=
PLAYORDER=
